<svg width="237" height="26" viewBox="0 0 237 26" fill="none" xmlns="http://www.w3.org/2000/svg">
<path fill-rule="evenodd" clip-rule="evenodd" d="M14.0833 0C14.3707 0 14.6462 0.114137 14.8494 0.317301C15.0525 0.520466 15.1667 0.796015 15.1667 1.08333V24.9167C15.1667 25.204 15.0525 25.4795 14.8494 25.6827C14.6462 25.8859 14.3707 26 14.0833 26C13.796 26 13.5205 25.8859 13.3173 25.6827C13.1141 25.4795 13 25.204 13 24.9167V1.08333C13 0.796015 13.1141 0.520466 13.3173 0.317301C13.5205 0.114137 13.796 0 14.0833 0V0ZM9.75 4.33333C10.0373 4.33333 10.3129 4.44747 10.516 4.65063C10.7192 4.8538 10.8333 5.12935 10.8333 5.41667V20.5833C10.8333 20.8707 10.7192 21.1462 10.516 21.3494C10.3129 21.5525 10.0373 21.6667 9.75 21.6667C9.46268 21.6667 9.18713 21.5525 8.98397 21.3494C8.7808 21.1462 8.66667 20.8707 8.66667 20.5833V5.41667C8.66667 5.12935 8.7808 4.8538 8.98397 4.65063C9.18713 4.44747 9.46268 4.33333 9.75 4.33333V4.33333ZM18.4167 4.33333C18.704 4.33333 18.9795 4.44747 19.1827 4.65063C19.3859 4.8538 19.5 5.12935 19.5 5.41667V20.5833C19.5 20.8707 19.3859 21.1462 19.1827 21.3494C18.9795 21.5525 18.704 21.6667 18.4167 21.6667C18.1293 21.6667 17.8538 21.5525 17.6506 21.3494C17.4475 21.1462 17.3333 20.8707 17.3333 20.5833V5.41667C17.3333 5.12935 17.4475 4.8538 17.6506 4.65063C17.8538 4.44747 18.1293 4.33333 18.4167 4.33333ZM5.41667 7.58333C5.70398 7.58333 5.97953 7.69747 6.1827 7.90063C6.38586 8.1038 6.5 8.37935 6.5 8.66667V17.3333C6.5 17.6207 6.38586 17.8962 6.1827 18.0994C5.97953 18.3025 5.70398 18.4167 5.41667 18.4167C5.12935 18.4167 4.8538 18.3025 4.65063 18.0994C4.44747 17.8962 4.33333 17.6207 4.33333 17.3333V8.66667C4.33333 8.37935 4.44747 8.1038 4.65063 7.90063C4.8538 7.69747 5.12935 7.58333 5.41667 7.58333V7.58333ZM22.75 7.58333C23.0373 7.58333 23.3129 7.69747 23.516 7.90063C23.7192 8.1038 23.8333 8.37935 23.8333 8.66667V17.3333C23.8333 17.6207 23.7192 17.8962 23.516 18.0994C23.3129 18.3025 23.0373 18.4167 22.75 18.4167C22.4627 18.4167 22.1871 18.3025 21.984 18.0994C21.7808 17.8962 21.6667 17.6207 21.6667 17.3333V8.66667C21.6667 8.37935 21.7808 8.1038 21.984 7.90063C22.1871 7.69747 22.4627 7.58333 22.75 7.58333ZM1.08333 9.75C1.37065 9.75 1.6462 9.86414 1.84937 10.0673C2.05253 10.2705 2.16667 10.546 2.16667 10.8333V15.1667C2.16667 15.454 2.05253 15.7295 1.84937 15.9327C1.6462 16.1359 1.37065 16.25 1.08333 16.25C0.796015 16.25 0.520466 16.1359 0.317301 15.9327C0.114137 15.7295 0 15.454 0 15.1667V10.8333C0 10.546 0.114137 10.2705 0.317301 10.0673C0.520466 9.86414 0.796015 9.75 1.08333 9.75ZM27.0833 9.75C27.3707 9.75 27.6462 9.86414 27.8494 10.0673C28.0525 10.2705 28.1667 10.546 28.1667 10.8333V15.1667C28.1667 15.454 28.0525 15.7295 27.8494 15.9327C27.6462 16.1359 27.3707 16.25 27.0833 16.25C26.796 16.25 26.5205 16.1359 26.3173 15.9327C26.1141 15.7295 26 15.454 26 15.1667V10.8333C26 10.546 26.1141 10.2705 26.3173 10.0673C26.5205 9.86414 26.796 9.75 27.0833 9.75Z" fill="white"/>
<path fill-rule="evenodd" clip-rule="evenodd" d="M40.0833 0C40.3707 0 40.6462 0.114137 40.8494 0.317301C41.0525 0.520466 41.1667 0.796015 41.1667 1.08333V24.9167C41.1667 25.204 41.0525 25.4795 40.8494 25.6827C40.6462 25.8859 40.3707 26 40.0833 26C39.796 26 39.5205 25.8859 39.3173 25.6827C39.1141 25.4795 39 25.204 39 24.9167V1.08333C39 0.796015 39.1141 0.520466 39.3173 0.317301C39.5205 0.114137 39.796 0 40.0833 0V0ZM35.75 4.33333C36.0373 4.33333 36.3129 4.44747 36.516 4.65063C36.7192 4.8538 36.8333 5.12935 36.8333 5.41667V20.5833C36.8333 20.8707 36.7192 21.1462 36.516 21.3494C36.3129 21.5525 36.0373 21.6667 35.75 21.6667C35.4627 21.6667 35.1871 21.5525 34.984 21.3494C34.7808 21.1462 34.6667 20.8707 34.6667 20.5833V5.41667C34.6667 5.12935 34.7808 4.8538 34.984 4.65063C35.1871 4.44747 35.4627 4.33333 35.75 4.33333V4.33333ZM44.4167 4.33333C44.704 4.33333 44.9795 4.44747 45.1827 4.65063C45.3859 4.8538 45.5 5.12935 45.5 5.41667V20.5833C45.5 20.8707 45.3859 21.1462 45.1827 21.3494C44.9795 21.5525 44.704 21.6667 44.4167 21.6667C44.1293 21.6667 43.8538 21.5525 43.6506 21.3494C43.4475 21.1462 43.3333 20.8707 43.3333 20.5833V5.41667C43.3333 5.12935 43.4475 4.8538 43.6506 4.65063C43.8538 4.44747 44.1293 4.33333 44.4167 4.33333ZM31.4167 7.58333C31.704 7.58333 31.9795 7.69747 32.1827 7.90063C32.3859 8.1038 32.5 8.37935 32.5 8.66667V17.3333C32.5 17.6207 32.3859 17.8962 32.1827 18.0994C31.9795 18.3025 31.704 18.4167 31.4167 18.4167C31.1293 18.4167 30.8538 18.3025 30.6506 18.0994C30.4475 17.8962 30.3333 17.6207 30.3333 17.3333V8.66667C30.3333 8.37935 30.4475 8.1038 30.6506 7.90063C30.8538 7.69747 31.1293 7.58333 31.4167 7.58333V7.58333ZM48.75 7.58333C49.0373 7.58333 49.3129 7.69747 49.516 7.90063C49.7192 8.1038 49.8333 8.37935 49.8333 8.66667V17.3333C49.8333 17.6207 49.7192 17.8962 49.516 18.0994C49.3129 18.3025 49.0373 18.4167 48.75 18.4167C48.4627 18.4167 48.1871 18.3025 47.984 18.0994C47.7808 17.8962 47.6667 17.6207 47.6667 17.3333V8.66667C47.6667 8.37935 47.7808 8.1038 47.984 7.90063C48.1871 7.69747 48.4627 7.58333 48.75 7.58333ZM27.0833 9.75C27.3707 9.75 27.6462 9.86414 27.8494 10.0673C28.0525 10.2705 28.1667 10.546 28.1667 10.8333V15.1667C28.1667 15.454 28.0525 15.7295 27.8494 15.9327C27.6462 16.1359 27.3707 16.25 27.0833 16.25C26.796 16.25 26.5205 16.1359 26.3173 15.9327C26.1141 15.7295 26 15.454 26 15.1667V10.8333C26 10.546 26.1141 10.2705 26.3173 10.0673C26.5205 9.86414 26.796 9.75 27.0833 9.75ZM53.0833 9.75C53.3707 9.75 53.6462 9.86414 53.8494 10.0673C54.0525 10.2705 54.1667 10.546 54.1667 10.8333V15.1667C54.1667 15.454 54.0525 15.7295 53.8494 15.9327C53.6462 16.1359 53.3707 16.25 53.0833 16.25C52.796 16.25 52.5205 16.1359 52.3173 15.9327C52.1141 15.7295 52 15.454 52 15.1667V10.8333C52 10.546 52.1141 10.2705 52.3173 10.0673C52.5205 9.86414 52.796 9.75 53.0833 9.75Z" fill="white"/>
<path fill-rule="evenodd" clip-rule="evenodd" d="M66.0833 0C66.3707 0 66.6462 0.114137 66.8494 0.317301C67.0525 0.520466 67.1667 0.796015 67.1667 1.08333V24.9167C67.1667 25.204 67.0525 25.4795 66.8494 25.6827C66.6462 25.8859 66.3707 26 66.0833 26C65.796 26 65.5205 25.8859 65.3173 25.6827C65.1141 25.4795 65 25.204 65 24.9167V1.08333C65 0.796015 65.1141 0.520466 65.3173 0.317301C65.5205 0.114137 65.796 0 66.0833 0V0ZM61.75 4.33333C62.0373 4.33333 62.3129 4.44747 62.516 4.65063C62.7192 4.8538 62.8333 5.12935 62.8333 5.41667V20.5833C62.8333 20.8707 62.7192 21.1462 62.516 21.3494C62.3129 21.5525 62.0373 21.6667 61.75 21.6667C61.4627 21.6667 61.1871 21.5525 60.984 21.3494C60.7808 21.1462 60.6667 20.8707 60.6667 20.5833V5.41667C60.6667 5.12935 60.7808 4.8538 60.984 4.65063C61.1871 4.44747 61.4627 4.33333 61.75 4.33333V4.33333ZM70.4167 4.33333C70.704 4.33333 70.9795 4.44747 71.1827 4.65063C71.3859 4.8538 71.5 5.12935 71.5 5.41667V20.5833C71.5 20.8707 71.3859 21.1462 71.1827 21.3494C70.9795 21.5525 70.704 21.6667 70.4167 21.6667C70.1293 21.6667 69.8538 21.5525 69.6506 21.3494C69.4475 21.1462 69.3333 20.8707 69.3333 20.5833V5.41667C69.3333 5.12935 69.4475 4.8538 69.6506 4.65063C69.8538 4.44747 70.1293 4.33333 70.4167 4.33333ZM57.4167 7.58333C57.704 7.58333 57.9795 7.69747 58.1827 7.90063C58.3859 8.1038 58.5 8.37935 58.5 8.66667V17.3333C58.5 17.6207 58.3859 17.8962 58.1827 18.0994C57.9795 18.3025 57.704 18.4167 57.4167 18.4167C57.1293 18.4167 56.8538 18.3025 56.6506 18.0994C56.4475 17.8962 56.3333 17.6207 56.3333 17.3333V8.66667C56.3333 8.37935 56.4475 8.1038 56.6506 7.90063C56.8538 7.69747 57.1293 7.58333 57.4167 7.58333V7.58333ZM74.75 7.58333C75.0373 7.58333 75.3129 7.69747 75.516 7.90063C75.7192 8.1038 75.8333 8.37935 75.8333 8.66667V17.3333C75.8333 17.6207 75.7192 17.8962 75.516 18.0994C75.3129 18.3025 75.0373 18.4167 74.75 18.4167C74.4627 18.4167 74.1871 18.3025 73.984 18.0994C73.7808 17.8962 73.6667 17.6207 73.6667 17.3333V8.66667C73.6667 8.37935 73.7808 8.1038 73.984 7.90063C74.1871 7.69747 74.4627 7.58333 74.75 7.58333ZM53.0833 9.75C53.3707 9.75 53.6462 9.86414 53.8494 10.0673C54.0525 10.2705 54.1667 10.546 54.1667 10.8333V15.1667C54.1667 15.454 54.0525 15.7295 53.8494 15.9327C53.6462 16.1359 53.3707 16.25 53.0833 16.25C52.796 16.25 52.5205 16.1359 52.3173 15.9327C52.1141 15.7295 52 15.454 52 15.1667V10.8333C52 10.546 52.1141 10.2705 52.3173 10.0673C52.5205 9.86414 52.796 9.75 53.0833 9.75ZM79.0833 9.75C79.3707 9.75 79.6462 9.86414 79.8494 10.0673C80.0525 10.2705 80.1667 10.546 80.1667 10.8333V15.1667C80.1667 15.454 80.0525 15.7295 79.8494 15.9327C79.6462 16.1359 79.3707 16.25 79.0833 16.25C78.796 16.25 78.5205 16.1359 78.3173 15.9327C78.1141 15.7295 78 15.454 78 15.1667V10.8333C78 10.546 78.1141 10.2705 78.3173 10.0673C78.5205 9.86414 78.796 9.75 79.0833 9.75Z" fill="white"/>
<path fill-rule="evenodd" clip-rule="evenodd" d="M92.0833 0C92.3707 0 92.6462 0.114137 92.8494 0.317301C93.0525 0.520466 93.1667 0.796015 93.1667 1.08333V24.9167C93.1667 25.204 93.0525 25.4795 92.8494 25.6827C92.6462 25.8859 92.3707 26 92.0833 26C91.796 26 91.5205 25.8859 91.3173 25.6827C91.1141 25.4795 91 25.204 91 24.9167V1.08333C91 0.796015 91.1141 0.520466 91.3173 0.317301C91.5205 0.114137 91.796 0 92.0833 0V0ZM87.75 4.33333C88.0373 4.33333 88.3129 4.44747 88.516 4.65063C88.7192 4.8538 88.8333 5.12935 88.8333 5.41667V20.5833C88.8333 20.8707 88.7192 21.1462 88.516 21.3494C88.3129 21.5525 88.0373 21.6667 87.75 21.6667C87.4627 21.6667 87.1871 21.5525 86.984 21.3494C86.7808 21.1462 86.6667 20.8707 86.6667 20.5833V5.41667C86.6667 5.12935 86.7808 4.8538 86.984 4.65063C87.1871 4.44747 87.4627 4.33333 87.75 4.33333V4.33333ZM96.4167 4.33333C96.704 4.33333 96.9795 4.44747 97.1827 4.65063C97.3859 4.8538 97.5 5.12935 97.5 5.41667V20.5833C97.5 20.8707 97.3859 21.1462 97.1827 21.3494C96.9795 21.5525 96.704 21.6667 96.4167 21.6667C96.1293 21.6667 95.8538 21.5525 95.6506 21.3494C95.4475 21.1462 95.3333 20.8707 95.3333 20.5833V5.41667C95.3333 5.12935 95.4475 4.8538 95.6506 4.65063C95.8538 4.44747 96.1293 4.33333 96.4167 4.33333ZM83.4167 7.58333C83.704 7.58333 83.9795 7.69747 84.1827 7.90063C84.3859 8.1038 84.5 8.37935 84.5 8.66667V17.3333C84.5 17.6207 84.3859 17.8962 84.1827 18.0994C83.9795 18.3025 83.704 18.4167 83.4167 18.4167C83.1293 18.4167 82.8538 18.3025 82.6506 18.0994C82.4475 17.8962 82.3333 17.6207 82.3333 17.3333V8.66667C82.3333 8.37935 82.4475 8.1038 82.6506 7.90063C82.8538 7.69747 83.1293 7.58333 83.4167 7.58333V7.58333ZM100.75 7.58333C101.037 7.58333 101.313 7.69747 101.516 7.90063C101.719 8.1038 101.833 8.37935 101.833 8.66667V17.3333C101.833 17.6207 101.719 17.8962 101.516 18.0994C101.313 18.3025 101.037 18.4167 100.75 18.4167C100.463 18.4167 100.187 18.3025 99.984 18.0994C99.7808 17.8962 99.6667 17.6207 99.6667 17.3333V8.66667C99.6667 8.37935 99.7808 8.1038 99.984 7.90063C100.187 7.69747 100.463 7.58333 100.75 7.58333ZM79.0833 9.75C79.3707 9.75 79.6462 9.86414 79.8494 10.0673C80.0525 10.2705 80.1667 10.546 80.1667 10.8333V15.1667C80.1667 15.454 80.0525 15.7295 79.8494 15.9327C79.6462 16.1359 79.3707 16.25 79.0833 16.25C78.796 16.25 78.5205 16.1359 78.3173 15.9327C78.1141 15.7295 78 15.454 78 15.1667V10.8333C78 10.546 78.1141 10.2705 78.3173 10.0673C78.5205 9.86414 78.796 9.75 79.0833 9.75ZM105.083 9.75C105.371 9.75 105.646 9.86414 105.849 10.0673C106.053 10.2705 106.167 10.546 106.167 10.8333V15.1667C106.167 15.454 106.053 15.7295 105.849 15.9327C105.646 16.1359 105.371 16.25 105.083 16.25C104.796 16.25 104.52 16.1359 104.317 15.9327C104.114 15.7295 104 15.454 104 15.1667V10.8333C104 10.546 104.114 10.2705 104.317 10.0673C104.52 9.86414 104.796 9.75 105.083 9.75Z" fill="white"/>
<path fill-rule="evenodd" clip-rule="evenodd" d="M118.083 0C118.371 0 118.646 0.114137 118.849 0.317301C119.053 0.520466 119.167 0.796015 119.167 1.08333V24.9167C119.167 25.204 119.053 25.4795 118.849 25.6827C118.646 25.8859 118.371 26 118.083 26C117.796 26 117.52 25.8859 117.317 25.6827C117.114 25.4795 117 25.204 117 24.9167V1.08333C117 0.796015 117.114 0.520466 117.317 0.317301C117.52 0.114137 117.796 0 118.083 0V0ZM113.75 4.33333C114.037 4.33333 114.313 4.44747 114.516 4.65063C114.719 4.8538 114.833 5.12935 114.833 5.41667V20.5833C114.833 20.8707 114.719 21.1462 114.516 21.3494C114.313 21.5525 114.037 21.6667 113.75 21.6667C113.463 21.6667 113.187 21.5525 112.984 21.3494C112.781 21.1462 112.667 20.8707 112.667 20.5833V5.41667C112.667 5.12935 112.781 4.8538 112.984 4.65063C113.187 4.44747 113.463 4.33333 113.75 4.33333V4.33333ZM122.417 4.33333C122.704 4.33333 122.98 4.44747 123.183 4.65063C123.386 4.8538 123.5 5.12935 123.5 5.41667V20.5833C123.5 20.8707 123.386 21.1462 123.183 21.3494C122.98 21.5525 122.704 21.6667 122.417 21.6667C122.129 21.6667 121.854 21.5525 121.651 21.3494C121.447 21.1462 121.333 20.8707 121.333 20.5833V5.41667C121.333 5.12935 121.447 4.8538 121.651 4.65063C121.854 4.44747 122.129 4.33333 122.417 4.33333ZM109.417 7.58333C109.704 7.58333 109.98 7.69747 110.183 7.90063C110.386 8.1038 110.5 8.37935 110.5 8.66667V17.3333C110.5 17.6207 110.386 17.8962 110.183 18.0994C109.98 18.3025 109.704 18.4167 109.417 18.4167C109.129 18.4167 108.854 18.3025 108.651 18.0994C108.447 17.8962 108.333 17.6207 108.333 17.3333V8.66667C108.333 8.37935 108.447 8.1038 108.651 7.90063C108.854 7.69747 109.129 7.58333 109.417 7.58333V7.58333ZM126.75 7.58333C127.037 7.58333 127.313 7.69747 127.516 7.90063C127.719 8.1038 127.833 8.37935 127.833 8.66667V17.3333C127.833 17.6207 127.719 17.8962 127.516 18.0994C127.313 18.3025 127.037 18.4167 126.75 18.4167C126.463 18.4167 126.187 18.3025 125.984 18.0994C125.781 17.8962 125.667 17.6207 125.667 17.3333V8.66667C125.667 8.37935 125.781 8.1038 125.984 7.90063C126.187 7.69747 126.463 7.58333 126.75 7.58333ZM105.083 9.75C105.371 9.75 105.646 9.86414 105.849 10.0673C106.053 10.2705 106.167 10.546 106.167 10.8333V15.1667C106.167 15.454 106.053 15.7295 105.849 15.9327C105.646 16.1359 105.371 16.25 105.083 16.25C104.796 16.25 104.52 16.1359 104.317 15.9327C104.114 15.7295 104 15.454 104 15.1667V10.8333C104 10.546 104.114 10.2705 104.317 10.0673C104.52 9.86414 104.796 9.75 105.083 9.75ZM131.083 9.75C131.371 9.75 131.646 9.86414 131.849 10.0673C132.053 10.2705 132.167 10.546 132.167 10.8333V15.1667C132.167 15.454 132.053 15.7295 131.849 15.9327C131.646 16.1359 131.371 16.25 131.083 16.25C130.796 16.25 130.52 16.1359 130.317 15.9327C130.114 15.7295 130 15.454 130 15.1667V10.8333C130 10.546 130.114 10.2705 130.317 10.0673C130.52 9.86414 130.796 9.75 131.083 9.75Z" fill="white"/>
<path fill-rule="evenodd" clip-rule="evenodd" d="M144.083 0C144.371 0 144.646 0.114137 144.849 0.317301C145.053 0.520466 145.167 0.796015 145.167 1.08333V24.9167C145.167 25.204 145.053 25.4795 144.849 25.6827C144.646 25.8859 144.371 26 144.083 26C143.796 26 143.52 25.8859 143.317 25.6827C143.114 25.4795 143 25.204 143 24.9167V1.08333C143 0.796015 143.114 0.520466 143.317 0.317301C143.52 0.114137 143.796 0 144.083 0V0ZM139.75 4.33333C140.037 4.33333 140.313 4.44747 140.516 4.65063C140.719 4.8538 140.833 5.12935 140.833 5.41667V20.5833C140.833 20.8707 140.719 21.1462 140.516 21.3494C140.313 21.5525 140.037 21.6667 139.75 21.6667C139.463 21.6667 139.187 21.5525 138.984 21.3494C138.781 21.1462 138.667 20.8707 138.667 20.5833V5.41667C138.667 5.12935 138.781 4.8538 138.984 4.65063C139.187 4.44747 139.463 4.33333 139.75 4.33333V4.33333ZM148.417 4.33333C148.704 4.33333 148.98 4.44747 149.183 4.65063C149.386 4.8538 149.5 5.12935 149.5 5.41667V20.5833C149.5 20.8707 149.386 21.1462 149.183 21.3494C148.98 21.5525 148.704 21.6667 148.417 21.6667C148.129 21.6667 147.854 21.5525 147.651 21.3494C147.447 21.1462 147.333 20.8707 147.333 20.5833V5.41667C147.333 5.12935 147.447 4.8538 147.651 4.65063C147.854 4.44747 148.129 4.33333 148.417 4.33333ZM135.417 7.58333C135.704 7.58333 135.98 7.69747 136.183 7.90063C136.386 8.1038 136.5 8.37935 136.5 8.66667V17.3333C136.5 17.6207 136.386 17.8962 136.183 18.0994C135.98 18.3025 135.704 18.4167 135.417 18.4167C135.129 18.4167 134.854 18.3025 134.651 18.0994C134.447 17.8962 134.333 17.6207 134.333 17.3333V8.66667C134.333 8.37935 134.447 8.1038 134.651 7.90063C134.854 7.69747 135.129 7.58333 135.417 7.58333V7.58333ZM152.75 7.58333C153.037 7.58333 153.313 7.69747 153.516 7.90063C153.719 8.1038 153.833 8.37935 153.833 8.66667V17.3333C153.833 17.6207 153.719 17.8962 153.516 18.0994C153.313 18.3025 153.037 18.4167 152.75 18.4167C152.463 18.4167 152.187 18.3025 151.984 18.0994C151.781 17.8962 151.667 17.6207 151.667 17.3333V8.66667C151.667 8.37935 151.781 8.1038 151.984 7.90063C152.187 7.69747 152.463 7.58333 152.75 7.58333ZM131.083 9.75C131.371 9.75 131.646 9.86414 131.849 10.0673C132.053 10.2705 132.167 10.546 132.167 10.8333V15.1667C132.167 15.454 132.053 15.7295 131.849 15.9327C131.646 16.1359 131.371 16.25 131.083 16.25C130.796 16.25 130.52 16.1359 130.317 15.9327C130.114 15.7295 130 15.454 130 15.1667V10.8333C130 10.546 130.114 10.2705 130.317 10.0673C130.52 9.86414 130.796 9.75 131.083 9.75ZM157.083 9.75C157.371 9.75 157.646 9.86414 157.849 10.0673C158.053 10.2705 158.167 10.546 158.167 10.8333V15.1667C158.167 15.454 158.053 15.7295 157.849 15.9327C157.646 16.1359 157.371 16.25 157.083 16.25C156.796 16.25 156.52 16.1359 156.317 15.9327C156.114 15.7295 156 15.454 156 15.1667V10.8333C156 10.546 156.114 10.2705 156.317 10.0673C156.52 9.86414 156.796 9.75 157.083 9.75Z" fill="white"/>
<path fill-rule="evenodd" clip-rule="evenodd" d="M170.083 0C170.371 0 170.646 0.114137 170.849 0.317301C171.053 0.520466 171.167 0.796015 171.167 1.08333V24.9167C171.167 25.204 171.053 25.4795 170.849 25.6827C170.646 25.8859 170.371 26 170.083 26C169.796 26 169.52 25.8859 169.317 25.6827C169.114 25.4795 169 25.204 169 24.9167V1.08333C169 0.796015 169.114 0.520466 169.317 0.317301C169.52 0.114137 169.796 0 170.083 0V0ZM165.75 4.33333C166.037 4.33333 166.313 4.44747 166.516 4.65063C166.719 4.8538 166.833 5.12935 166.833 5.41667V20.5833C166.833 20.8707 166.719 21.1462 166.516 21.3494C166.313 21.5525 166.037 21.6667 165.75 21.6667C165.463 21.6667 165.187 21.5525 164.984 21.3494C164.781 21.1462 164.667 20.8707 164.667 20.5833V5.41667C164.667 5.12935 164.781 4.8538 164.984 4.65063C165.187 4.44747 165.463 4.33333 165.75 4.33333V4.33333ZM174.417 4.33333C174.704 4.33333 174.98 4.44747 175.183 4.65063C175.386 4.8538 175.5 5.12935 175.5 5.41667V20.5833C175.5 20.8707 175.386 21.1462 175.183 21.3494C174.98 21.5525 174.704 21.6667 174.417 21.6667C174.129 21.6667 173.854 21.5525 173.651 21.3494C173.447 21.1462 173.333 20.8707 173.333 20.5833V5.41667C173.333 5.12935 173.447 4.8538 173.651 4.65063C173.854 4.44747 174.129 4.33333 174.417 4.33333ZM161.417 7.58333C161.704 7.58333 161.98 7.69747 162.183 7.90063C162.386 8.1038 162.5 8.37935 162.5 8.66667V17.3333C162.5 17.6207 162.386 17.8962 162.183 18.0994C161.98 18.3025 161.704 18.4167 161.417 18.4167C161.129 18.4167 160.854 18.3025 160.651 18.0994C160.447 17.8962 160.333 17.6207 160.333 17.3333V8.66667C160.333 8.37935 160.447 8.1038 160.651 7.90063C160.854 7.69747 161.129 7.58333 161.417 7.58333V7.58333ZM178.75 7.58333C179.037 7.58333 179.313 7.69747 179.516 7.90063C179.719 8.1038 179.833 8.37935 179.833 8.66667V17.3333C179.833 17.6207 179.719 17.8962 179.516 18.0994C179.313 18.3025 179.037 18.4167 178.75 18.4167C178.463 18.4167 178.187 18.3025 177.984 18.0994C177.781 17.8962 177.667 17.6207 177.667 17.3333V8.66667C177.667 8.37935 177.781 8.1038 177.984 7.90063C178.187 7.69747 178.463 7.58333 178.75 7.58333ZM157.083 9.75C157.371 9.75 157.646 9.86414 157.849 10.0673C158.053 10.2705 158.167 10.546 158.167 10.8333V15.1667C158.167 15.454 158.053 15.7295 157.849 15.9327C157.646 16.1359 157.371 16.25 157.083 16.25C156.796 16.25 156.52 16.1359 156.317 15.9327C156.114 15.7295 156 15.454 156 15.1667V10.8333C156 10.546 156.114 10.2705 156.317 10.0673C156.52 9.86414 156.796 9.75 157.083 9.75ZM183.083 9.75C183.371 9.75 183.646 9.86414 183.849 10.0673C184.053 10.2705 184.167 10.546 184.167 10.8333V15.1667C184.167 15.454 184.053 15.7295 183.849 15.9327C183.646 16.1359 183.371 16.25 183.083 16.25C182.796 16.25 182.52 16.1359 182.317 15.9327C182.114 15.7295 182 15.454 182 15.1667V10.8333C182 10.546 182.114 10.2705 182.317 10.0673C182.52 9.86414 182.796 9.75 183.083 9.75Z" fill="white"/>
<path fill-rule="evenodd" clip-rule="evenodd" d="M196.083 0C196.371 0 196.646 0.114137 196.849 0.317301C197.053 0.520466 197.167 0.796015 197.167 1.08333V24.9167C197.167 25.204 197.053 25.4795 196.849 25.6827C196.646 25.8859 196.371 26 196.083 26C195.796 26 195.52 25.8859 195.317 25.6827C195.114 25.4795 195 25.204 195 24.9167V1.08333C195 0.796015 195.114 0.520466 195.317 0.317301C195.52 0.114137 195.796 0 196.083 0V0ZM191.75 4.33333C192.037 4.33333 192.313 4.44747 192.516 4.65063C192.719 4.8538 192.833 5.12935 192.833 5.41667V20.5833C192.833 20.8707 192.719 21.1462 192.516 21.3494C192.313 21.5525 192.037 21.6667 191.75 21.6667C191.463 21.6667 191.187 21.5525 190.984 21.3494C190.781 21.1462 190.667 20.8707 190.667 20.5833V5.41667C190.667 5.12935 190.781 4.8538 190.984 4.65063C191.187 4.44747 191.463 4.33333 191.75 4.33333V4.33333ZM200.417 4.33333C200.704 4.33333 200.98 4.44747 201.183 4.65063C201.386 4.8538 201.5 5.12935 201.5 5.41667V20.5833C201.5 20.8707 201.386 21.1462 201.183 21.3494C200.98 21.5525 200.704 21.6667 200.417 21.6667C200.129 21.6667 199.854 21.5525 199.651 21.3494C199.447 21.1462 199.333 20.8707 199.333 20.5833V5.41667C199.333 5.12935 199.447 4.8538 199.651 4.65063C199.854 4.44747 200.129 4.33333 200.417 4.33333ZM187.417 7.58333C187.704 7.58333 187.98 7.69747 188.183 7.90063C188.386 8.1038 188.5 8.37935 188.5 8.66667V17.3333C188.5 17.6207 188.386 17.8962 188.183 18.0994C187.98 18.3025 187.704 18.4167 187.417 18.4167C187.129 18.4167 186.854 18.3025 186.651 18.0994C186.447 17.8962 186.333 17.6207 186.333 17.3333V8.66667C186.333 8.37935 186.447 8.1038 186.651 7.90063C186.854 7.69747 187.129 7.58333 187.417 7.58333V7.58333ZM204.75 7.58333C205.037 7.58333 205.313 7.69747 205.516 7.90063C205.719 8.1038 205.833 8.37935 205.833 8.66667V17.3333C205.833 17.6207 205.719 17.8962 205.516 18.0994C205.313 18.3025 205.037 18.4167 204.75 18.4167C204.463 18.4167 204.187 18.3025 203.984 18.0994C203.781 17.8962 203.667 17.6207 203.667 17.3333V8.66667C203.667 8.37935 203.781 8.1038 203.984 7.90063C204.187 7.69747 204.463 7.58333 204.75 7.58333ZM183.083 9.75C183.371 9.75 183.646 9.86414 183.849 10.0673C184.053 10.2705 184.167 10.546 184.167 10.8333V15.1667C184.167 15.454 184.053 15.7295 183.849 15.9327C183.646 16.1359 183.371 16.25 183.083 16.25C182.796 16.25 182.52 16.1359 182.317 15.9327C182.114 15.7295 182 15.454 182 15.1667V10.8333C182 10.546 182.114 10.2705 182.317 10.0673C182.52 9.86414 182.796 9.75 183.083 9.75ZM209.083 9.75C209.371 9.75 209.646 9.86414 209.849 10.0673C210.053 10.2705 210.167 10.546 210.167 10.8333V15.1667C210.167 15.454 210.053 15.7295 209.849 15.9327C209.646 16.1359 209.371 16.25 209.083 16.25C208.796 16.25 208.52 16.1359 208.317 15.9327C208.114 15.7295 208 15.454 208 15.1667V10.8333C208 10.546 208.114 10.2705 208.317 10.0673C208.52 9.86414 208.796 9.75 209.083 9.75Z" fill="white"/>
<path fill-rule="evenodd" clip-rule="evenodd" d="M222.083 0C222.371 0 222.646 0.114137 222.849 0.317301C223.053 0.520466 223.167 0.796015 223.167 1.08333V24.9167C223.167 25.204 223.053 25.4795 222.849 25.6827C222.646 25.8859 222.371 26 222.083 26C221.796 26 221.52 25.8859 221.317 25.6827C221.114 25.4795 221 25.204 221 24.9167V1.08333C221 0.796015 221.114 0.520466 221.317 0.317301C221.52 0.114137 221.796 0 222.083 0V0ZM217.75 4.33333C218.037 4.33333 218.313 4.44747 218.516 4.65063C218.719 4.8538 218.833 5.12935 218.833 5.41667V20.5833C218.833 20.8707 218.719 21.1462 218.516 21.3494C218.313 21.5525 218.037 21.6667 217.75 21.6667C217.463 21.6667 217.187 21.5525 216.984 21.3494C216.781 21.1462 216.667 20.8707 216.667 20.5833V5.41667C216.667 5.12935 216.781 4.8538 216.984 4.65063C217.187 4.44747 217.463 4.33333 217.75 4.33333V4.33333ZM226.417 4.33333C226.704 4.33333 226.98 4.44747 227.183 4.65063C227.386 4.8538 227.5 5.12935 227.5 5.41667V20.5833C227.5 20.8707 227.386 21.1462 227.183 21.3494C226.98 21.5525 226.704 21.6667 226.417 21.6667C226.129 21.6667 225.854 21.5525 225.651 21.3494C225.447 21.1462 225.333 20.8707 225.333 20.5833V5.41667C225.333 5.12935 225.447 4.8538 225.651 4.65063C225.854 4.44747 226.129 4.33333 226.417 4.33333ZM213.417 7.58333C213.704 7.58333 213.98 7.69747 214.183 7.90063C214.386 8.1038 214.5 8.37935 214.5 8.66667V17.3333C214.5 17.6207 214.386 17.8962 214.183 18.0994C213.98 18.3025 213.704 18.4167 213.417 18.4167C213.129 18.4167 212.854 18.3025 212.651 18.0994C212.447 17.8962 212.333 17.6207 212.333 17.3333V8.66667C212.333 8.37935 212.447 8.1038 212.651 7.90063C212.854 7.69747 213.129 7.58333 213.417 7.58333V7.58333ZM230.75 7.58333C231.037 7.58333 231.313 7.69747 231.516 7.90063C231.719 8.1038 231.833 8.37935 231.833 8.66667V17.3333C231.833 17.6207 231.719 17.8962 231.516 18.0994C231.313 18.3025 231.037 18.4167 230.75 18.4167C230.463 18.4167 230.187 18.3025 229.984 18.0994C229.781 17.8962 229.667 17.6207 229.667 17.3333V8.66667C229.667 8.37935 229.781 8.1038 229.984 7.90063C230.187 7.69747 230.463 7.58333 230.75 7.58333ZM209.083 9.75C209.371 9.75 209.646 9.86414 209.849 10.0673C210.053 10.2705 210.167 10.546 210.167 10.8333V15.1667C210.167 15.454 210.053 15.7295 209.849 15.9327C209.646 16.1359 209.371 16.25 209.083 16.25C208.796 16.25 208.52 16.1359 208.317 15.9327C208.114 15.7295 208 15.454 208 15.1667V10.8333C208 10.546 208.114 10.2705 208.317 10.0673C208.52 9.86414 208.796 9.75 209.083 9.75ZM235.083 9.75C235.371 9.75 235.646 9.86414 235.849 10.0673C236.053 10.2705 236.167 10.546 236.167 10.8333V15.1667C236.167 15.454 236.053 15.7295 235.849 15.9327C235.646 16.1359 235.371 16.25 235.083 16.25C234.796 16.25 234.52 16.1359 234.317 15.9327C234.114 15.7295 234 15.454 234 15.1667V10.8333C234 10.546 234.114 10.2705 234.317 10.0673C234.52 9.86414 234.796 9.75 235.083 9.75Z" fill="white"/>
</svg>
