<svg width="60" height="60" viewBox="0 0 60 60" fill="none" xmlns="http://www.w3.org/2000/svg">
<path d="M43 31C36.375 31 31 36.375 31 43C31 45.25 31.625 47.375 32.75 49.175C34.825 52.65 38.625 55 43 55C47.375 55 51.2 52.65 53.25 49.175C54.35 47.375 55 45.25 55 43C55 36.375 49.625 31 43 31ZM48.95 41.425L42.55 47.325C42.2 47.65 41.725 47.825 41.275 47.825C40.8 47.825 40.325 47.65 39.95 47.275L37 44.325C36.275 43.6 36.275 42.4 37 41.675C37.725 40.95 38.925 40.95 39.65 41.675L41.325 43.35L46.4 38.65C47.15 37.95 48.35 38 49.05 38.75C49.75 39.525 49.7 40.725 48.95 41.425Z" fill="#B8FFE1"/>
<path opacity="0.4" d="M55 21.725C55 24.7 54.525 27.45 53.7 30C53.175 31.675 52.5 33.275 51.7 34.75C49.5 32.425 46.425 31 43 31C36.375 31 31 36.375 31 43C31 46.075 32.175 48.875 34.075 51C33.15 51.425 32.3 51.775 31.55 52.025C30.7 52.325 29.3 52.325 28.45 52.025C22.425 49.975 10.25 42.5 6.3 30C5.475 27.45 5 24.7 5 21.725C5 14 11.225 7.75002 18.9 7.75002C23.425 7.75002 27.475 9.94997 30 13.325C32.525 9.94997 36.575 7.75002 41.1 7.75002C48.775 7.75002 55 14 55 21.725Z" fill="#B8FFE1"/>
</svg>
