<svg width="60" height="60" viewBox="0 0 60 60" fill="none" xmlns="http://www.w3.org/2000/svg">
<path opacity="0.8" d="M32.25 6.3L32.175 6.475L24.925 23.3H17.8C16.1 23.3 14.5 23.625 13 24.275L17.375 13.825L17.475 13.6L17.625 13.2C17.7 13.025 17.75 12.875 17.825 12.75C21.1 5.175 24.8 3.45 32.25 6.3Z" fill="#B8FFE1"/>
<path d="M45.725 23.8C44.6 23.475 43.425 23.3 42.2 23.3H24.925L32.175 6.475L32.25 6.3C32.6 6.425 32.975 6.6 33.35 6.725L38.875 9.05C41.95 10.325 44.1 11.65 45.425 13.25C45.65 13.55 45.85 13.825 46.05 14.15C46.275 14.5 46.45 14.85 46.55 15.225C46.65 15.45 46.725 15.65 46.775 15.875C47.425 18 47.025 20.575 45.725 23.8Z" fill="#B8FFE1"/>
<path opacity="0.4" d="M54.4 35.5V40.375C54.4 40.875 54.375 41.375 54.35 41.85C53.875 50.6 49 55 39.75 55H20.25C19.625 55 19.05 54.95 18.475 54.875C10.525 54.35 6.27501 50.1 5.72501 42.15C5.65001 41.55 5.60001 40.975 5.60001 40.375V35.5C5.60001 30.475 8.65001 26.15 13 24.275C14.5 23.625 16.1 23.3 17.8 23.3H42.2C43.425 23.3 44.6 23.475 45.725 23.8C50.725 25.325 54.4 29.975 54.4 35.5Z" fill="#B8FFE1"/>
<path opacity="0.6" d="M17.375 13.825L13 24.275C8.65001 26.15 5.60001 30.475 5.60001 35.5V28.175C5.60001 21.075 10.65 15.15 17.375 13.825Z" fill="#B8FFE1"/>
<path opacity="0.6" d="M54.4 28.175V35.5C54.4 29.975 50.725 25.325 45.725 23.8C47.025 20.575 47.425 18 46.775 15.875C46.725 15.65 46.65 15.45 46.55 15.225C51.225 17.65 54.4 22.575 54.4 28.175Z" fill="#B8FFE1"/>
<path d="M36.25 36.725H31.875V32.5C31.875 31.475 31.025 30.625 30 30.625C28.975 30.625 28.125 31.475 28.125 32.5V36.725H23.75C22.725 36.725 21.875 37.575 21.875 38.6C21.875 39.625 22.725 40.475 23.75 40.475H28.125V45C28.125 46.025 28.975 46.875 30 46.875C31.025 46.875 31.875 46.025 31.875 45V40.475H36.25C37.275 40.475 38.125 39.625 38.125 38.6C38.125 37.575 37.275 36.725 36.25 36.725Z" fill="#B8FFE1"/>
</svg>
