<svg width="60" height="60" viewBox="0 0 60 60" fill="none" xmlns="http://www.w3.org/2000/svg">
<path d="M32.95 29.6499C31.95 29.6499 31.05 29.1 30.625 28.2L27 20.975L25.95 22.9249C25.375 23.9999 24.225 24.675 23 24.675H21.175C20.15 24.675 19.3 23.825 19.3 22.8C19.3 21.775 20.15 20.925 21.175 20.925H22.7749L24.75 17.2749C25.225 16.4249 26.175 15.8499 27.075 15.8999C28.05 15.8999 28.925 16.475 29.375 17.325L32.95 24.4749L33.8 22.7499C34.375 21.5999 35.5 20.8999 36.8 20.8999H38.825C39.85 20.8999 40.7 21.7499 40.7 22.7749C40.7 23.7999 39.85 24.6499 38.825 24.6499H37.05L35.2749 28.175C34.8249 29.1 33.95 29.6499 32.95 29.6499Z" fill="#B8FFE1"/>
<path opacity="0.4" d="M6.875 46.6251C5.85 46.6251 5 45.7751 5 44.7501V30.5C4.875 23.725 7.39999 17.325 12.1 12.525C16.8 7.75002 23.1 5.12497 29.875 5.12497C43.725 5.12497 55 16.3999 55 30.2499V44.5C55 45.525 54.15 46.375 53.125 46.375C52.1 46.375 51.25 45.525 51.25 44.5V30.2499C51.25 18.4749 41.675 8.87497 29.875 8.87497C24.1 8.87497 18.75 11.1 14.775 15.15C10.775 19.225 8.65 24.65 8.75 30.45V44.725C8.75 45.775 7.925 46.6251 6.875 46.6251Z" fill="#B8FFE1"/>
<path d="M14.85 31.125H14.525C9.27499 31.125 5 35.4 5 40.65V45.35C5 50.6 9.27499 54.875 14.525 54.875H14.85C20.1 54.875 24.375 50.6 24.375 45.35V40.65C24.375 35.4 20.1 31.125 14.85 31.125Z" fill="#B8FFE1"/>
<path d="M45.475 31.125H45.15C39.9 31.125 35.625 35.4 35.625 40.65V45.35C35.625 50.6 39.9 54.875 45.15 54.875H45.475C50.725 54.875 55 50.6 55 45.35V40.65C55 35.4 50.725 31.125 45.475 31.125Z" fill="#B8FFE1"/>
</svg>
