<svg width="60" height="60" viewBox="0 0 60 60" fill="none" xmlns="http://www.w3.org/2000/svg">
<path opacity="0.4" d="M46.675 5H41.925C36.475 5 33.6 7.875 33.6 13.325V18.075C33.6 23.525 36.475 26.4 41.925 26.4H46.675C52.125 26.4 55 23.525 55 18.075V13.325C55 7.875 52.125 5 46.675 5Z" fill="#B8FFE1"/>
<path opacity="0.4" d="M18.1 33.575H13.35C7.875 33.575 5 36.45 5 41.9V46.65C5 52.125 7.875 55 13.325 55H18.075C23.525 55 26.4 52.125 26.4 46.675V41.925C26.425 36.45 23.55 33.575 18.1 33.575Z" fill="#B8FFE1"/>
<path d="M15.725 26.45C21.6483 26.45 26.45 21.6483 26.45 15.725C26.45 9.80175 21.6483 5 15.725 5C9.80175 5 5 9.80175 5 15.725C5 21.6483 9.80175 26.45 15.725 26.45Z" fill="#B8FFE1"/>
<path d="M44.275 55C50.1982 55 55 50.1982 55 44.275C55 38.3517 50.1982 33.55 44.275 33.55C38.3517 33.55 33.55 38.3517 33.55 44.275C33.55 50.1982 38.3517 55 44.275 55Z" fill="#B8FFE1"/>
</svg>
