<svg width="40" height="40" viewBox="0 0 40 40" fill="none" xmlns="http://www.w3.org/2000/svg">
<g clip-path="url(#clip0_1_38)">
<path d="M8.90001 2.25755e-05C7.7305 -0.00261442 6.572 0.225791 5.49101 0.672124C4.41002 1.11846 3.42785 1.77393 2.60088 2.60089C1.77391 3.42786 1.11844 4.41003 0.67211 5.49102C0.225778 6.57201 -0.00262778 7.73052 9.22402e-06 8.90002V31.1C-0.00262778 32.2695 0.225778 33.428 0.67211 34.509C1.11844 35.59 1.77391 36.5722 2.60088 37.3992C3.42785 38.2261 4.41002 38.8816 5.49101 39.3279C6.572 39.7743 7.7305 40.0027 8.90001 40H31.1C32.2695 40.0027 33.428 39.7743 34.509 39.3279C35.59 38.8816 36.5722 38.2261 37.3991 37.3992C38.2261 36.5722 38.8816 35.59 39.3279 34.509C39.7742 33.428 40.0026 32.2695 40 31.1V8.90002C40.0026 7.73052 39.7742 6.57201 39.3279 5.49102C38.8816 4.41003 38.2261 3.42786 37.3991 2.60089C36.5722 1.77393 35.59 1.11846 34.509 0.672124C33.428 0.225791 32.2695 -0.00261442 31.1 2.25755e-05H8.90001ZM19.775 4.28002C23.6683 4.28002 27.1883 5.78336 29.8683 8.59169C31.9083 10.7117 33.055 12.9567 33.6417 15.9117C33.8417 16.895 33.8417 19.5784 33.6533 20.685C33.0297 24.2025 31.1012 27.3549 28.2533 29.5117C27.24 30.2784 24.76 31.6134 24.36 31.6134C24.2133 31.6134 24.2 31.4617 24.2667 30.8467C24.3867 29.86 24.5067 29.655 25.0667 29.42C25.96 29.0467 27.48 27.9634 28.4133 27.0284C30.0405 25.4021 31.197 23.3656 31.76 21.135C32.1067 19.7617 32.0667 16.7084 31.68 15.295C30.4667 10.8017 26.8 7.30836 22.3067 6.37502C21 6.10836 18.6267 6.10836 17.3067 6.37502C12.76 7.30836 9.00001 10.975 7.85334 15.5884C7.54668 16.8417 7.54668 19.895 7.85334 21.1484C8.61334 24.2017 10.5867 27.0017 13.1733 28.6684C13.68 29.0017 14.2933 29.3484 14.5467 29.455C15.1067 29.695 15.2267 29.895 15.3333 30.8817C15.4 31.4817 15.3833 31.655 15.24 31.655C15.1467 31.655 14.4667 31.3617 13.7467 31.015L13.68 30.965C9.56001 28.9384 6.92001 25.5084 5.96001 20.945C5.72001 19.7684 5.68001 16.9584 5.91001 15.8784C6.51001 12.9784 7.65668 10.7117 9.56334 8.70502C12.31 5.81002 15.8433 4.27836 19.7767 4.27836L19.775 4.28002ZM19.9983 8.96336C20.68 8.97002 21.3367 9.03002 21.8417 9.14002C26.4817 10.1734 29.775 14.82 29.135 19.43C28.8817 21.2867 28.2417 22.8134 27.1083 24.23C26.5483 24.9467 25.1883 26.1467 24.9483 26.1467C24.91 26.1467 24.8683 25.6934 24.8683 25.1417V24.1334L25.5617 23.3067C28.175 20.1767 27.9883 15.8034 25.135 12.9334C24.0283 11.8167 22.7483 11.16 21.095 10.8567C20.0283 10.66 19.8017 10.66 18.6817 10.8434C16.9817 11.1217 15.665 11.78 14.495 12.9367C11.6283 15.7767 11.4417 20.1734 14.055 23.3067L14.7433 24.1334V25.1467C14.7433 25.7067 14.6983 26.16 14.6433 26.16C14.5933 26.16 14.2033 25.8934 13.79 25.56L13.7333 25.5417C12.3467 24.435 11.12 22.4717 10.6133 20.5467C10.3067 19.3834 10.3067 17.1734 10.6267 16.0134C11.4667 12.8834 13.7733 10.455 16.9733 9.31502C17.6567 9.07336 18.8617 8.94836 19.9967 8.96336H19.9983ZM19.7817 13.9467C20.2983 13.9467 20.815 14.0467 21.1883 14.2434C22.0017 14.665 22.6683 15.485 22.9217 16.3417C23.695 18.9717 20.9083 21.275 18.3883 20.0984H18.3633C17.1767 19.5467 16.5367 18.505 16.5233 17.1484C16.5233 15.9267 17.2033 14.8634 18.3767 14.24C18.75 14.045 19.2667 13.9467 19.7833 13.9467H19.7817ZM19.7633 21.8267C21.41 21.82 22.6067 22.4084 23.0467 23.4434C23.3767 24.2167 23.2533 26.6634 22.6833 30.6134C22.2967 33.3734 22.0833 34.07 21.55 34.54C20.8167 35.19 19.7767 35.37 18.79 35.02H18.785C17.5917 34.5917 17.335 34.0117 16.845 30.6134C16.2767 26.6634 16.1517 24.2167 16.4817 23.4434C16.9183 22.4167 18.105 21.8334 19.765 21.8267H19.7633Z" fill="white"/>
</g>
<defs>
<clipPath id="clip0_1_38">
<rect width="40" height="40" fill="white"/>
</clipPath>
</defs>
</svg>
