<svg width="40" height="40" viewBox="0 0 40 40" fill="none" xmlns="http://www.w3.org/2000/svg">
<g clip-path="url(#clip0_1_46)">
<path d="M2.505 16.13C1.12167 16.13 0.00500488 17.2467 0.00500488 18.63V21.3467C0.00500488 21.675 0.0696693 22.0001 0.195306 22.3034C0.320943 22.6067 0.505091 22.8823 0.737238 23.1144C0.969384 23.3466 1.24498 23.5307 1.5483 23.6564C1.85161 23.782 2.1767 23.8467 2.505 23.8467C2.83331 23.8467 3.1584 23.782 3.46171 23.6564C3.76503 23.5307 4.04063 23.3466 4.27277 23.1144C4.50492 22.8823 4.68907 22.6067 4.8147 22.3034C4.94034 22.0001 5.005 21.675 5.005 21.3467V18.63C5.005 17.2467 3.88834 16.13 2.505 16.13ZM37.495 16.13C36.1117 16.13 34.995 17.2467 34.995 18.63V21.3467C34.995 22.0097 35.2584 22.6456 35.7272 23.1144C36.1961 23.5833 36.832 23.8467 37.495 23.8467C38.158 23.8467 38.7939 23.5833 39.2628 23.1144C39.7316 22.6456 39.995 22.0097 39.995 21.3467V18.63C39.995 17.2467 38.8783 16.13 37.495 16.13ZM11.1333 24.3117C9.75 24.3117 8.63334 25.4283 8.63334 26.8117V29.5283C8.63334 30.1914 8.89673 30.8273 9.36557 31.2961C9.83441 31.7649 10.4703 32.0283 11.1333 32.0283C11.7964 32.0283 12.4323 31.7649 12.9011 31.2961C13.3699 30.8273 13.6333 30.1914 13.6333 29.5283V26.8283C13.6333 25.445 12.5167 24.3283 11.1333 24.3283V24.3117ZM11.1333 7.95C9.75 7.95 8.63334 9.06667 8.63334 10.45V19.3783C8.63334 20.0414 8.89673 20.6773 9.36557 21.1461C9.83441 21.6149 10.4703 21.8783 11.1333 21.8783C11.7964 21.8783 12.4323 21.6149 12.9011 21.1461C13.3699 20.6773 13.6333 20.0414 13.6333 19.3783V10.43C13.6333 9.04667 12.5167 7.93 11.1333 7.93V7.95ZM28.8633 7.95C27.48 7.95 26.3633 9.06667 26.3633 10.45V13.1833C26.3633 13.8464 26.6267 14.4823 27.0956 14.9511C27.5644 15.4199 28.2003 15.6833 28.8633 15.6833C29.5264 15.6833 30.1623 15.4199 30.6311 14.9511C31.0999 14.4823 31.3633 13.8464 31.3633 13.1833V10.45C31.3633 9.06667 30.2467 7.95 28.8633 7.95ZM20 0C18.6167 0 17.5 1.11667 17.5 2.5V5.21667C17.5 5.87971 17.7634 6.51559 18.2322 6.98443C18.7011 7.45327 19.337 7.71667 20 7.71667C20.663 7.71667 21.2989 7.45327 21.7678 6.98443C22.2366 6.51559 22.5 5.87971 22.5 5.21667V2.5C22.5 1.11667 21.3833 0.00166667 20 0.00166667V0ZM20 32.2583C18.6167 32.2583 17.5 33.375 17.5 34.7583V37.4917C17.4989 37.82 17.5625 38.1453 17.6871 38.449C17.8117 38.7527 17.995 39.029 18.2263 39.2619C18.4577 39.4948 18.7327 39.6799 19.0356 39.8065C19.3385 39.9332 19.6634 39.9989 19.9917 40C20.32 40.0011 20.6453 39.9375 20.949 39.8129C21.2527 39.6883 21.529 39.505 21.7619 39.2737C21.9948 39.0423 22.1799 38.7673 22.3065 38.4644C22.4332 38.1615 22.4989 37.8366 22.5 37.5083V34.775C22.5 33.4083 21.3833 32.275 20 32.275V32.2583ZM28.865 18.1633C27.4817 18.1633 26.365 19.2967 26.365 20.6633V29.5433C26.365 30.2064 26.6284 30.8423 27.0972 31.3111C27.5661 31.7799 28.202 32.0433 28.865 32.0433C29.528 32.0433 30.1639 31.7799 30.6328 31.3111C31.1016 30.8423 31.365 30.2064 31.365 29.5433V20.6617C31.365 19.2783 30.2483 18.1617 28.865 18.1617V18.1633ZM20 10.2133C18.6167 10.2133 17.5 11.3467 17.5 12.7133V27.26C17.5 27.923 17.7634 28.5589 18.2322 29.0278C18.7011 29.4966 19.337 29.76 20 29.76C20.663 29.76 21.2989 29.4966 21.7678 29.0278C22.2366 28.5589 22.5 27.923 22.5 27.26V12.73C22.5 11.3467 21.3833 10.23 20 10.23V10.2133Z" fill="white"/>
</g>
<defs>
<clipPath id="clip0_1_46">
<rect width="40" height="40" fill="white"/>
</clipPath>
</defs>
</svg>
