<svg width="40" height="40" viewBox="0 0 40 40" fill="none" xmlns="http://www.w3.org/2000/svg">
<g clip-path="url(#clip0_1_42)">
<path d="M20 0C8.95333 0 0 8.95333 0 20C0 31.0467 8.95333 40 20 40C31.0467 40 40 31.0467 40 20C40 8.95333 31.0467 0 20 0ZM25.94 20C25.94 16.72 23.28 14.06 20 14.06C16.72 14.06 14.06 16.7183 14.06 20C14.06 23.28 16.7183 25.94 20 25.94V29.3333C14.845 29.3333 10.6667 25.155 10.6667 20C10.6667 14.845 14.845 10.6667 20 10.6667C25.155 10.6667 29.3333 14.845 29.3333 20H25.94ZM31.6667 20C31.6667 13.5567 26.4433 8.33333 20 8.33333C13.5567 8.33333 8.33333 13.5567 8.33333 20C8.33333 26.4433 13.5567 31.6667 20 31.6667V35.555C11.4083 35.555 4.445 28.59 4.445 20C4.445 11.4083 11.41 4.445 20 4.445C28.5917 4.445 35.555 11.41 35.555 20H31.6667Z" fill="white"/>
</g>
<defs>
<clipPath id="clip0_1_42">
<rect width="40" height="40" fill="white"/>
</clipPath>
</defs>
</svg>
