<svg width="40" height="40" viewBox="0 0 40 40" fill="none" xmlns="http://www.w3.org/2000/svg">
<g clip-path="url(#clip0_1_50)">
<path d="M8.93333 0.0617253C4.01667 0.0617253 0 4.07839 0 8.99506V31.0067C0 35.9234 4.01667 39.9401 8.93333 39.9401H31.0667C35.975 39.9401 40 35.9234 40 31.0067V8.99339C40 4.07673 35.975 0.0600586 31.0667 0.0600586L8.93333 0.0617253ZM19.9083 7.20339C23.2697 7.20382 26.4974 8.51966 28.9011 10.8694C31.3047 13.2192 32.6934 16.4162 32.77 19.7767L32.7783 32.9367H27.1283V30.7267C25.001 32.171 22.488 32.9411 19.9167 32.9367C18.5675 32.9348 17.2269 32.7222 15.9433 32.3067V24.5901C17.0557 25.5697 18.4877 26.109 19.97 26.1067C21.3891 26.1066 22.7639 25.6125 23.8584 24.7093C24.9529 23.8061 25.6989 22.55 25.9683 21.1567H23.8283C23.5521 22.0781 22.9552 22.8701 22.1457 23.3895C21.3361 23.9089 20.3674 24.1213 19.4148 23.9884C18.4622 23.8555 17.5886 23.386 16.9522 22.6648C16.3157 21.9436 15.9585 21.0185 15.945 20.0567V20.0051C15.945 18.1801 17.1583 16.6334 18.825 16.1451V14.0051C17.4305 14.274 16.173 15.0198 15.2683 16.1146C14.3636 17.2094 13.8681 18.5848 13.8667 20.0051V31.4251C11.3347 30.0758 9.32634 27.919 8.16074 25.2974C6.99514 22.6758 6.73918 19.7398 7.43353 16.9561C8.12789 14.1724 9.73272 11.7005 11.993 9.93348C14.2533 8.16641 17.0393 7.20548 19.9083 7.20339ZM19.96 10.3201V12.3834H19.97C21.9914 12.3843 23.9297 13.1878 25.3589 14.6173C26.7881 16.0468 27.5912 17.9853 27.5917 20.0067V20.0234H29.6533V20.0067C29.6533 17.4385 28.6331 14.9756 26.8172 13.1596C25.0012 11.3436 22.5382 10.3234 19.97 10.3234L19.96 10.3201ZM19.96 13.9017V15.9784H19.97C20.4988 15.978 21.0226 16.0818 21.5112 16.284C21.9998 16.4863 22.4438 16.7829 22.8177 17.1569C23.1915 17.5309 23.488 17.975 23.69 18.4637C23.892 18.9525 23.9957 19.4762 23.995 20.0051V20.0217H26.0733V20.0051C26.0733 18.3864 25.4303 16.8339 24.2857 15.6894C23.1411 14.5448 21.5887 13.9017 19.97 13.9017H19.96ZM19.96 17.6551C18.66 17.6551 17.6117 18.7034 17.6117 20.0051C17.6117 21.3051 18.66 22.3534 19.9617 22.3534C21.2617 22.3534 22.31 21.3051 22.31 20.0034C22.31 18.7034 21.2617 17.6551 19.96 17.6551Z" fill="white"/>
</g>
<defs>
<clipPath id="clip0_1_50">
<rect width="40" height="40" fill="white"/>
</clipPath>
</defs>
</svg>
