<svg width="60" height="60" viewBox="0 0 60 60" fill="none" xmlns="http://www.w3.org/2000/svg">
<g clip-path="url(#clip0_1_244)">
<path d="M60 30C60 46.645 46.455 60 30 60C13.355 60 0 46.645 0 30C0 13.355 13.355 0 30 0C46.455 0 60 13.355 60 30ZM5.035 30C5.035 43.7425 16.2575 54.9675 30 54.9675C43.745 54.9675 54.97 43.7425 54.97 30C54.97 16.255 43.745 5.0325 30 5.0325C16.2575 5.0325 5.035 16.255 5.035 30V30ZM32.905 15.2875L32.905 36.9675C32.905 37.9275 32.1325 38.705 31.1775 38.7125H28.6475C27.68 38.7125 26.905 37.935 26.905 36.9675V15.0975C26.905 14.13 27.6825 13.355 28.6475 13.355H31.1625C32.13 13.5475 32.905 14.3225 32.905 15.2875V15.2875ZM23.2275 20.9025V42.7725C23.2325 43.73 22.46 44.515 21.5 44.5175H18.975C18.1975 44.5175 17.4225 43.7425 17.4225 42.775V20.905C17.4225 20.13 18.2 19.355 18.97 19.355H21.485C22.45 19.3525 23.2275 20.13 23.2275 20.9025V20.9025ZM36.7725 42.7725L36.7725 20.9025C36.7725 19.9325 37.55 19.1625 38.515 19.1625H41.03C41.9875 19.1575 42.7675 19.935 42.7725 20.89L42.7725 42.7725C42.5825 43.7425 41.805 44.515 40.84 44.515L38.325 44.515C37.55 44.5175 36.7725 43.7425 36.7725 42.7725V42.7725Z" fill="#015239"/>
</g>
<defs>
<clipPath id="clip0_1_244">
<rect width="60" height="60" fill="white" transform="translate(0 60) rotate(-90)"/>
</clipPath>
</defs>
</svg>
